# xmcd
#
# Track frame offsets: 
#        151
#        19628
#        37192
#        66103
#        93609
#        121897
#        135467
#        156084
#        186566
#        212532
#
# Disc length: 2997 seconds
#
# Revision: 0
# Processed by: cddbd v1.5.1PL2 Copyright (c) Steve Scherf et al.
# Submitted via: ExactAudioCopy v0.95a5
#
DISCID=8a0bb30a
DTITLE=Sparkjiver - Sparkjiver
DYEAR=2000
DGENRE=R&B
TTITLE0=My Eyes
TTITLE1=A Cool Goose
TTITLE2=You Don't Know Me
TTITLE3=Mercy, Mercy, Mercy
TTITLE4=Ode To Billy Joe
TTITLE5=Harlem Nocturne
TTITLE6=When Johnny Comes Marching Home
TTITLE7=Use Me
TTITLE8=Try A Little Tenderness
TTITLE9=Untitled
EXTD=
EXTT0=
EXTT1=
EXTT2=
EXTT3=
EXTT4=
EXTT5=
EXTT6=
EXTT7=
EXTT8=
EXTT9=
PLAYORDER=
